<svg width="29" height="29" viewBox="0 0 29 29" fill="none" xmlns="http://www.w3.org/2000/svg">
<g clip-path="url(#clip0_21_275)">
<path d="M22.1803 5.18042C21.2377 5.18042 20.4836 5.94272 20.4836 6.87714C20.4836 7.81157 21.2459 8.57386 22.1803 8.57386C23.1148 8.57386 23.8771 7.81157 23.8771 6.87714C23.8771 5.94272 23.1148 5.18042 22.1803 5.18042Z" fill="white"/>
<path d="M14.623 7.3606C10.6885 7.3606 7.48361 10.5655 7.48361 14.4999C7.48361 18.4344 10.6885 21.6393 14.623 21.6393C18.5574 21.6393 21.7623 18.4344 21.7623 14.4999C21.7623 10.5655 18.5574 7.3606 14.623 7.3606ZM14.623 19.0737C12.0984 19.0737 10.0492 17.0245 10.0492 14.4999C10.0492 11.9754 12.0984 9.92617 14.623 9.92617C17.1475 9.92617 19.1967 11.9754 19.1967 14.4999C19.1967 17.0245 17.1475 19.0737 14.623 19.0737Z" fill="white"/>
<path d="M20.2869 29H8.70491C3.90163 29 -0.00820923 25.0902 -0.00820923 20.2869V8.70492C-1.25077e-05 3.90984 3.90982 0 8.7131 0H20.2951C25.0983 0 29.0082 3.90984 29.0082 8.71311V20.2951C29.0082 25.0984 25.0983 29.0082 20.2951 29.0082L20.2869 29ZM8.7131 2.72951C5.41802 2.72951 2.7295 5.40984 2.7295 8.71311V20.2951C2.7295 23.5902 5.40982 26.2787 8.7131 26.2787H20.2951C23.5902 26.2787 26.2787 23.5984 26.2787 20.2951V8.71311C26.2787 5.41803 23.5983 2.72951 20.2951 2.72951H8.7131Z" fill="white"/>
</g>
<defs>
<clipPath id="clip0_21_275">
<rect width="29" height="29" fill="white"/>
</clipPath>
</defs>
</svg>
