<svg width="22" height="22" viewBox="0 0 22 22" fill="none" xmlns="http://www.w3.org/2000/svg">
<g clip-path="url(#clip0_2_135)">
<path d="M16.8265 3.92993C16.1114 3.92993 15.5393 4.50822 15.5393 5.2171C15.5393 5.92597 16.1176 6.50427 16.8265 6.50427C17.5353 6.50427 18.1136 5.92597 18.1136 5.2171C18.1136 4.50822 17.5353 3.92993 16.8265 3.92993Z" fill="#012A79"/>
<path d="M11.0933 5.58392C8.10856 5.58392 5.67725 8.01524 5.67725 11C5.67725 13.9847 8.10856 16.416 11.0933 16.416C14.078 16.416 16.5094 13.9847 16.5094 11C16.5094 8.01524 14.078 5.58392 11.0933 5.58392ZM11.0933 14.4697C9.17809 14.4697 7.62354 12.9152 7.62354 11C7.62354 9.08477 9.17809 7.53022 11.0933 7.53022C13.0085 7.53022 14.5631 9.08477 14.5631 11C14.5631 12.9152 13.0085 14.4697 11.0933 14.4697Z" fill="#012A79"/>
<path d="M15.39 22H6.60372C2.95986 22 -0.00622559 19.0339 -0.00622559 15.39V6.60373C-7.38399e-06 2.96608 2.96608 0 6.60994 0H15.3963C19.0401 0 22.0062 2.96608 22.0062 6.60995V15.3963C22.0062 19.0401 19.0401 22.0062 15.3963 22.0062L15.39 22ZM6.60994 2.07066C4.11022 2.07066 2.07065 4.10401 2.07065 6.60995V15.3963C2.07065 17.896 4.10401 19.9356 6.60994 19.9356H15.3963C17.896 19.9356 19.9355 17.9022 19.9355 15.3963V6.60995C19.9355 4.11023 17.9022 2.07066 15.3963 2.07066H6.60994Z" fill="#012A79"/>
</g>
<defs>
<clipPath id="clip0_2_135">
<rect width="22" height="22" fill="white"/>
</clipPath>
</defs>
</svg>
