<svg width="148" height="74" viewBox="0 0 148 74" fill="none" xmlns="http://www.w3.org/2000/svg">
<g clip-path="url(#clip0_21_246)">
<path d="M23.5607 51.587C23.1829 52.2066 22.6067 52.6578 21.8384 52.9406C21.1118 53.2043 20.3115 53.2075 19.4312 52.9437C19.3639 52.9247 19.3511 52.8421 19.4119 52.8039C19.7897 52.5625 20.0714 52.2288 20.2571 51.8031C20.4683 51.3265 20.5228 50.8149 20.4203 50.2684C20.4203 50.2653 20.4203 50.2621 20.4203 50.2589C20.129 49.1913 19.4568 48.5018 18.4036 48.1968C17.3472 47.8886 16.2556 47.7742 15.1192 47.8537C12.8655 48.038 11.0537 48.8386 9.68677 50.2557C8.31987 51.6728 7.33711 53.3282 6.74169 55.2155C6.14627 57.1029 5.86777 58.8504 5.91259 60.4581C6.02783 63.359 6.95297 65.7516 8.6848 67.6325C10.4166 69.5135 12.6351 70.7336 15.34 71.2896C17.901 71.8171 20.606 71.601 23.4518 70.6446C23.5447 70.6129 23.6151 70.7209 23.5415 70.7781C21.1886 72.5288 18.7397 73.5614 16.1916 73.876C13.4994 74.2096 10.9672 73.876 8.58877 72.8751C6.2103 71.8743 4.24157 70.3492 2.6858 68.2966C1.13003 66.244 0.243303 63.7943 0.0224214 60.9474C-0.166448 56.3212 1.17805 52.7054 4.0591 50.0969C6.94016 47.4883 10.932 46.1792 16.0379 46.1665C17.0111 46.1665 18.045 46.2586 19.1366 46.4398C20.2282 46.624 21.211 46.9577 22.0817 47.4501C22.9525 47.9395 23.5415 48.6416 23.8488 49.5535C23.8488 49.5535 23.8488 49.5599 23.8488 49.5631C24.0344 50.2939 23.9416 50.9674 23.5639 51.587H23.5607Z" fill="white"/>
<path d="M41.1063 66.422C41.7914 67.318 42.1339 68.2267 42.1339 69.1482V73.8093C42.1339 73.8538 42.0859 73.9173 42.0379 73.9173H38.2829C38.2349 73.9173 38.1964 73.8506 38.1964 73.8093V68.4237C38.1964 67.5468 37.9852 66.9113 37.5594 66.5142C37.1337 66.117 36.6503 65.8692 36.1061 65.7675C35.5619 65.6658 35.1009 65.615 34.7296 65.615H30.9426C30.8946 65.615 30.8562 65.6499 30.8562 65.6944V73.8125C30.8562 73.857 30.8177 73.8919 30.7697 73.8919H27.0083C26.9603 73.8919 26.9219 73.857 26.9219 73.8125V53.9669C26.9219 53.9224 26.9603 53.8875 27.0083 53.8875H35.0753C37.6683 53.9796 39.573 54.7421 40.7926 56.1719C42.0123 57.6017 42.4572 59.1713 42.1307 60.8744C41.817 62.5203 40.6966 63.8039 38.7727 64.7317C38.7022 64.7666 38.715 64.8588 38.7919 64.8778C39.7074 65.0844 40.4789 65.5991 41.1095 66.4252L41.1063 66.422ZM33.9613 64.8143C33.9613 64.8143 33.9677 64.8143 33.9709 64.8143C35.8148 64.684 37.0632 63.8071 37.7163 62.1866C38.3693 60.5662 38.3981 58.9076 37.8027 57.2173C37.2073 55.527 35.9428 54.6818 34.0125 54.6818H30.9426C30.8946 54.6818 30.8562 54.7167 30.8562 54.7612V64.738C30.8562 64.7825 30.8946 64.8175 30.9426 64.8175H33.9613V64.8143Z" fill="white"/>
<path d="M50.9083 54.0335V73.8092C50.9083 73.8537 50.8699 73.8887 50.8219 73.8887H47.0605C47.0125 73.8887 46.9741 73.8537 46.9741 73.8092V54.0335C46.9741 53.9891 47.0125 53.9541 47.0605 53.9541H50.8219C50.8699 53.9541 50.9083 53.9891 50.9083 54.0335Z" fill="white"/>
<path d="M59.9645 65.472C57.5892 65.024 55.915 64.1947 54.9386 62.9841C53.9623 61.7736 53.6165 60.4741 53.895 59.0856C54.1767 57.6971 55.0026 56.5024 56.376 55.5015C57.7493 54.5007 59.5931 53.9796 61.9076 53.9415C63.0888 53.9319 64.2124 54.0082 65.2752 54.1639C66.338 54.3227 67.2439 54.6055 67.9898 55.0154C68.7357 55.4253 69.2319 56.0131 69.4816 56.7852C69.4816 56.7884 69.4816 56.7915 69.4816 56.7979C69.6544 57.5954 69.4047 58.2372 68.7325 58.7202C68.0955 59.1777 67.2952 59.2826 66.3284 59.0347C66.2612 59.0188 66.242 58.9362 66.2996 58.8981C66.5557 58.7265 66.7478 58.4978 66.8758 58.2118C67.0263 57.8718 67.0615 57.5064 66.9783 57.1156C66.7926 56.3975 66.2324 55.8256 65.304 55.3967C64.3757 54.9677 63.3513 54.758 62.2309 54.7676C60.3646 54.8343 59.0009 55.1806 58.1398 55.8097C57.2787 56.4388 56.8337 57.176 56.8017 58.0243C56.7697 58.8727 57.0706 59.6543 57.7044 60.366C58.3383 61.0778 59.209 61.5575 60.3198 61.799L63.8667 62.3995C65.4545 62.6791 66.735 63.1494 67.7113 63.8103C68.6877 64.4711 69.3695 65.2369 69.7569 66.1106C70.1442 66.9812 70.2659 67.8709 70.1154 68.7796C69.965 69.6883 69.5616 70.5303 68.9086 71.3087C68.2555 72.0872 67.372 72.7195 66.2548 73.2088C65.1408 73.6981 63.8155 73.9428 62.2789 73.9428C60.5567 73.9428 58.9401 73.7299 57.4323 73.3073C55.9438 72.8879 54.6953 72.3954 53.6838 71.8267C53.6582 71.8108 53.6422 71.7854 53.6422 71.7599V68.5254C53.6422 68.4428 53.767 68.4142 53.8054 68.4905C54.2056 69.2181 54.769 69.9107 55.4924 70.5589C56.3215 71.3056 57.2947 71.9156 58.4087 72.389C59.5227 72.8656 60.7039 73.1008 61.9492 73.1008C63.0888 73.1008 64.062 72.9514 64.8655 72.6528C65.669 72.3541 66.274 71.9601 66.6773 71.4644C67.0807 70.972 67.2632 70.4255 67.2215 69.8281C67.1191 68.9416 66.7094 68.1473 65.9987 67.4388C65.288 66.7302 64.4365 66.2727 63.4377 66.0693L59.9517 65.4688L59.9645 65.472Z" fill="white"/>
<path d="M79.1811 73.8093V54.8025C79.1811 54.758 79.1427 54.7231 79.0947 54.7231H71.8792C71.8312 54.7231 71.7928 54.6881 71.7928 54.6437V53.9637C71.7928 53.9192 71.8312 53.8843 71.8792 53.8843H90.4076C90.4557 53.8843 90.4941 53.9192 90.4941 53.9637V54.6437C90.4941 54.6881 90.4557 54.7231 90.4076 54.7231H83.2082C83.1602 54.7231 83.1217 54.758 83.1217 54.8025V73.8093C83.1217 73.8538 83.0833 73.8887 83.0353 73.8887H79.2739C79.2259 73.8887 79.1875 73.8538 79.1875 73.8093H79.1811Z" fill="white"/>
<path d="M103.171 73.9554C103.03 73.9554 102.905 73.8791 102.857 73.7616L102.239 72.3191L101.016 69.4913C100.965 69.3737 100.84 69.2974 100.703 69.2974H92.2163C92.0787 69.2974 91.9538 69.3737 91.9026 69.4881L90.6637 72.3159L90.0459 73.7584C89.9947 73.876 89.8698 73.9522 89.7322 73.9522H89.2744C89.0375 73.9522 88.8743 73.7362 88.9607 73.5392L89.4953 72.3159L97.3478 54.1416C97.399 54.024 97.5238 53.9478 97.6615 53.9478H98.353C98.4906 53.9478 98.6155 54.024 98.6667 54.1416L106.535 72.3159L107.07 73.5392C107.156 73.7362 106.993 73.9522 106.756 73.9522H103.171V73.9554ZM92.8501 68.4618L100.066 68.4491C100.302 68.4491 100.466 68.2362 100.379 68.036L96.7492 59.6828C96.6371 59.4255 96.2306 59.4255 96.1217 59.6828L92.5332 68.0487C92.4468 68.2457 92.61 68.4618 92.8469 68.4586L92.8501 68.4618Z" fill="white"/>
<path d="M124.042 55.2759C125.624 56.1751 126.885 57.3825 127.823 58.8949C128.761 60.4105 129.232 62.0849 129.232 63.9214C129.232 65.7579 128.761 67.4451 127.823 68.9607C126.885 70.4762 125.624 71.6805 124.042 72.5796C122.461 73.4788 120.71 73.93 118.792 73.93C116.875 73.93 115.111 73.482 113.533 72.5796C111.955 71.6805 110.7 70.4731 109.759 68.9607C108.821 67.4451 108.35 65.7674 108.35 63.9214C108.35 62.0754 108.821 60.4105 109.759 58.8949C110.697 57.3793 111.955 56.1751 113.533 55.2759C115.111 54.3767 116.862 53.9255 118.792 53.9255C120.723 53.9255 122.461 54.3767 124.042 55.2759ZM115.514 56.1624C114.535 56.9917 113.751 58.0878 113.165 59.4541C112.579 60.8203 112.284 62.3073 112.284 63.9214C112.284 65.5355 112.579 67.0352 113.165 68.4014C113.751 69.7677 114.535 70.8607 115.514 71.6868C116.494 72.5129 117.586 72.9228 118.789 72.9228C119.993 72.9228 121.072 72.5097 122.058 71.6868C123.044 70.8607 123.828 69.7677 124.414 68.4014C125 67.0352 125.294 65.5419 125.294 63.9214C125.294 62.301 125 60.8203 124.414 59.4541C123.828 58.0878 123.04 56.9917 122.058 56.1624C121.072 55.3331 119.983 54.9169 118.789 54.9169C117.595 54.9169 116.494 55.3331 115.514 56.1624Z" fill="white"/>
<path d="M137.782 65.472C135.407 65.024 133.732 64.1947 132.756 62.9841C131.78 61.7736 131.434 60.4741 131.712 59.0856C131.994 57.6971 132.82 56.5024 134.193 55.5015C135.567 54.5007 137.411 53.9796 139.725 53.9415C140.906 53.9319 142.03 54.0082 143.093 54.1639C144.155 54.3227 145.061 54.6055 145.807 55.0154C146.547 55.4221 147.043 56.0067 147.293 56.7661C147.299 56.782 147.302 56.7979 147.305 56.8138C147.472 57.6049 147.222 58.2404 146.553 58.7202C146.038 59.0887 145.413 59.2285 144.68 59.1364C144.395 59.1014 144.274 58.8091 144.447 58.6026C144.546 58.485 144.626 58.3548 144.69 58.2086C144.84 57.8686 144.876 57.5033 144.792 57.1124C144.607 56.3944 144.047 55.8224 143.118 55.3935C142.19 54.9646 141.166 54.7549 140.045 54.7644C138.179 54.8311 136.815 55.1774 135.954 55.8066C135.093 56.4357 134.648 57.1728 134.616 58.0212C134.584 58.8695 134.885 59.6511 135.519 60.3628C136.152 61.0746 137.023 61.5544 138.134 61.7958L141.681 62.3963C143.269 62.6759 144.549 63.1462 145.526 63.8071C146.502 64.468 147.184 65.2337 147.571 66.1075C147.958 66.978 148.08 67.8677 147.93 68.7764C147.779 69.6851 147.376 70.5271 146.723 71.3056C146.07 72.084 145.186 72.7163 144.069 73.2056C142.955 73.6949 141.63 73.9396 140.093 73.9396C138.371 73.9396 136.754 73.7267 135.247 73.3041C133.822 72.9038 132.615 72.4335 131.629 71.8966C131.52 71.8362 131.456 71.7313 131.456 71.6169V69.4405C131.456 69.1164 131.921 68.9957 132.122 69.2657C132.452 69.7106 132.849 70.1427 133.31 70.5557C134.139 71.3024 135.112 71.9124 136.226 72.3859C137.34 72.8625 138.521 73.0976 139.767 73.0976C140.906 73.0976 141.879 72.9482 142.683 72.6496C143.486 72.3509 144.091 71.9569 144.495 71.4613C144.898 70.9688 145.081 70.4223 145.039 69.8249C144.936 68.9385 144.527 68.1441 143.816 67.4356C143.105 66.727 142.254 66.2695 141.255 66.0662L137.769 65.4656L137.782 65.472Z" fill="white"/>
<path d="M102.262 49.3978C102.274 49.3088 102.162 49.2739 102.127 49.3533C101.945 49.7378 101.653 49.9793 101.26 50.0777C100.68 50.208 99.7423 50.0841 98.4554 49.6996L96.81 49.223C96.0577 49.0356 95.4495 49.096 94.9886 49.4042C94.5372 49.7219 94.2075 50.154 94.0058 50.7037C93.9002 50.9896 93.8233 51.2629 93.7721 51.5266C93.7561 51.6124 93.8649 51.6601 93.9034 51.5838C94.0826 51.2375 94.3579 51.0214 94.7293 50.9293C95.3087 50.799 96.2434 50.9261 97.5335 51.3074L99.4862 51.8666C100.229 52.0636 100.808 51.9937 101.228 51.6569C101.637 51.3296 101.916 50.888 102.066 50.3288C102.159 50.0047 102.223 49.6933 102.265 49.3978H102.262Z" fill="white"/>
<path d="M48.9268 50.5545C50.2934 50.5545 51.4013 49.4549 51.4013 48.0984C51.4013 46.742 50.2934 45.6423 48.9268 45.6423C47.5601 45.6423 46.4523 46.742 46.4523 48.0984C46.4523 49.4549 47.5601 50.5545 48.9268 50.5545Z" fill="#73B7F4"/>
<path d="M76.3097 42.9701C74.7667 42.9701 73.2397 42.897 71.7352 42.7382C71.7256 42.7382 71.7192 42.7382 71.7096 42.7382C71.367 42.6905 63.3097 41.5372 60.5183 36.5329C59.2282 34.2198 59.2794 31.5 60.6623 28.4529C60.6687 28.4402 60.6719 28.4307 60.6783 28.418C60.7808 28.2178 63.2649 23.4581 69.2063 21.1387C70.794 20.5191 72.3018 20.5541 73.6911 21.2404C76.9435 22.8513 78.2848 27.541 78.3392 27.7412C78.4609 28.1828 78.2016 28.6372 77.7566 28.7611C77.3116 28.8818 76.8539 28.6245 76.729 28.1828C76.7162 28.1415 75.5254 23.9983 72.9388 22.721C71.9785 22.2476 70.9573 22.2349 69.8145 22.6797C64.6062 24.7132 62.3141 28.8818 62.1701 29.1519C61.024 31.6906 60.9568 33.902 61.9716 35.7258C64.3117 39.9294 71.5911 41.0478 71.9208 41.0955C81.1658 42.0614 91.5793 39.5736 98.6891 37.3145C106.433 34.852 112.044 32.1227 112.099 32.0941C112.512 31.8908 113.011 32.0592 113.216 32.4691C113.421 32.8789 113.251 33.3746 112.838 33.5779C111.99 33.9942 93.4424 42.9701 76.3065 42.9701H76.3097Z" fill="white"/>
<path d="M88.17 28.7771C87.7667 28.7771 87.4114 28.4848 87.3473 28.0749C87.3217 27.9256 86.6591 24.2431 81.7581 21.196C80.1927 20.2237 78.7426 19.8806 77.4461 20.1761C75.7751 20.5605 74.914 21.8696 74.8211 22.0157C74.5778 22.4034 74.0625 22.5209 73.6719 22.2795C73.2814 22.038 73.1629 21.5264 73.4062 21.1388C73.6175 20.7988 74.7955 19.0831 77.0716 18.562C78.8162 18.1616 80.6889 18.5747 82.6448 19.7916C88.2341 23.2676 88.9671 27.6364 88.9959 27.8239C89.0664 28.2751 88.7526 28.6977 88.2981 28.7676C88.2565 28.7739 88.2116 28.7771 88.17 28.7771Z" fill="white"/>
<path d="M90.9679 22.3048C90.7278 22.3048 90.4909 22.2032 90.3244 22.0062C88.7302 20.0998 86.9888 19.2514 85.1481 19.4834C83.7428 19.6613 82.7696 20.4239 82.76 20.4302C82.4015 20.7162 81.8765 20.659 81.5884 20.3063C81.3003 19.9504 81.3515 19.4357 81.7069 19.1466C81.7581 19.1053 86.7679 15.159 91.6081 20.9481C91.9026 21.3008 91.8546 21.8219 91.4992 22.1142C91.3424 22.2413 91.1535 22.3048 90.9679 22.3048Z" fill="white"/>
<path d="M103.235 10.2532C103.212 10.2532 103.187 10.2532 103.164 10.2469C100.213 9.65272 98.0585 8.3659 96.7684 6.4182C94.8893 3.5872 95.5327 0.416226 95.5584 0.282778C95.5936 0.114379 95.7472 -0.00635924 95.9233 -4.585e-06C98.337 0.0953153 100.232 0.921421 101.554 2.44972C104.073 5.36015 103.609 9.75122 103.59 9.93868C103.581 10.0372 103.526 10.1261 103.446 10.1865C103.385 10.231 103.312 10.2532 103.235 10.2532ZM96.2146 0.727604C96.1122 1.55371 95.9713 3.93353 97.3702 6.03692C98.4938 7.72726 100.357 8.88063 102.905 9.46526C102.953 8.34684 102.908 5.10279 101.01 2.91043C99.8799 1.60772 98.2665 0.873761 96.2146 0.727604Z" fill="#73AA3D"/>
<path d="M110.831 1.67754C110.831 1.67754 104.016 1.31533 104.787 8.57552C104.787 8.57552 111.51 8.93774 110.831 1.67754Z" fill="#73AA3D"/>
<path d="M97.2582 26.232C101.229 26.232 104.448 23.037 104.448 19.0958C104.448 15.1545 101.229 11.9595 97.2582 11.9595C93.2873 11.9595 90.0683 15.1545 90.0683 19.0958C90.0683 23.037 93.2873 26.232 97.2582 26.232Z" fill="#B291C7"/>
<path d="M108.257 37.0986C111.947 37.0986 114.938 34.1298 114.938 30.4675C114.938 26.8053 111.947 23.8364 108.257 23.8364C104.568 23.8364 101.577 26.8053 101.577 30.4675C101.577 34.1298 104.568 37.0986 108.257 37.0986Z" fill="#B291C7"/>
<path d="M110.146 21.2818C112.74 21.2818 114.842 19.1949 114.842 16.6206C114.842 14.0463 112.74 11.9595 110.146 11.9595C107.553 11.9595 105.45 14.0463 105.45 16.6206C105.45 19.1949 107.553 21.2818 110.146 21.2818Z" fill="#B291C7"/>
<path d="M94.8381 37.0986C97.4706 37.0986 99.6046 34.9804 99.6046 32.3675C99.6046 29.7546 97.4706 27.6365 94.8381 27.6365C92.2056 27.6365 90.0715 29.7546 90.0715 32.3675C90.0715 34.9804 92.2056 37.0986 94.8381 37.0986Z" fill="#B291C7"/>
</g>
<defs>
<clipPath id="clip0_21_246">
<rect width="148" height="74" fill="white"/>
</clipPath>
</defs>
</svg>
