<svg width="127" height="64" viewBox="0 0 127 64" fill="none" xmlns="http://www.w3.org/2000/svg">
<g clip-path="url(#clip0_2_80)">
<path d="M20.2191 44.3654C19.8941 44.9102 19.4014 45.3038 18.739 45.5503C18.1175 45.7823 17.4285 45.7823 16.6741 45.5544C16.6148 45.5358 16.6067 45.4654 16.6578 45.4322C16.9808 45.2189 17.222 44.9268 17.3835 44.5559C17.5634 44.1395 17.6105 43.6921 17.5246 43.2115C17.5246 43.2094 17.5246 43.2053 17.5246 43.2032C17.2731 42.2668 16.6966 41.664 15.793 41.3968C14.8873 41.1274 13.949 41.028 12.9758 41.0964C11.0398 41.2559 9.48604 41.9582 8.31255 43.199C7.13907 44.442 6.29678 45.89 5.78568 47.5432C5.27458 49.1984 5.03743 50.7293 5.07423 52.1359C5.1744 54.6778 5.96559 56.7722 7.45186 58.4212C8.93814 60.0702 10.8415 61.137 13.1619 61.6238C15.3596 62.0837 17.68 61.8973 20.123 61.0604C20.2028 61.0334 20.2641 61.1267 20.1987 61.1764C18.1809 62.7094 16.0772 63.6147 13.8917 63.8902C11.5815 64.1823 9.40631 63.8902 7.366 63.0139C5.32569 62.1376 3.63702 60.8014 2.30203 59.0033C0.967035 57.2051 0.204475 55.0589 0.0184347 52.5627C-0.143073 48.5106 1.00997 45.3411 3.48164 43.0582C5.95332 40.7732 9.37973 39.6276 13.7609 39.6152C14.597 39.6152 15.4843 39.696 16.4206 39.8555C17.357 40.015 18.1993 40.3112 18.9475 40.7401C19.6958 41.1689 20.2007 41.7821 20.4624 42.5817C20.4624 42.5838 20.4624 42.5879 20.4644 42.59C20.626 43.2301 20.5442 43.8205 20.2191 44.3633V44.3654Z" fill="#012A79"/>
<path d="M35.274 57.3626C35.8608 58.1457 36.1552 58.9432 36.1552 59.7511V63.8343C36.1552 63.8716 36.1122 63.9296 36.0713 63.9296H32.8494C32.8085 63.9296 32.7758 63.8716 32.7758 63.8343V59.1152C32.7758 58.3487 32.5938 57.7914 32.2279 57.4434C31.8619 57.0974 31.4469 56.8778 30.9787 56.7888C30.5106 56.6997 30.1181 56.6541 29.7971 56.6541H26.5485C26.5077 56.6541 26.4729 56.6852 26.4729 56.7225V63.8343C26.4729 63.8716 26.4402 63.9026 26.3973 63.9026H23.1692C23.1283 63.9026 23.0935 63.8716 23.0935 63.8343V46.4494C23.0935 46.4121 23.1262 46.381 23.1692 46.381H30.0894C32.3137 46.4618 33.9493 47.131 34.996 48.3822C36.0427 49.6355 36.425 51.009 36.1449 52.5026C35.8751 53.9445 34.9142 55.0714 33.2644 55.8814C33.2031 55.9125 33.2133 55.9933 33.2828 56.0078C34.0678 56.188 34.7302 56.6417 35.272 57.3647L35.274 57.3626ZM29.1408 55.9539C29.1408 55.9539 29.147 55.9539 29.149 55.9539C30.7314 55.8379 31.8026 55.0714 32.3628 53.6524C32.923 52.2312 32.9475 50.7811 32.4364 49.2999C31.9253 47.8187 30.8418 47.0771 29.1858 47.0771H26.5506C26.5097 47.0771 26.4749 47.1082 26.4749 47.1455V55.8855C26.4749 55.9228 26.5077 55.9539 26.5506 55.9539H29.1429H29.1408Z" fill="#012A79"/>
<path d="M43.6867 46.5074V63.8322C43.6867 63.8695 43.654 63.9005 43.6111 63.9005H40.383C40.3421 63.9005 40.3073 63.8695 40.3073 63.8322V46.5074C40.3073 46.4701 40.34 46.439 40.383 46.439H43.6111C43.652 46.439 43.6867 46.4701 43.6867 46.5074Z" fill="#012A79"/>
<path d="M51.4575 56.5298C49.4192 56.1383 47.982 55.4111 47.1458 54.3505C46.3097 53.2898 46.0112 52.1504 46.2504 50.9344C46.4916 49.7184 47.201 48.6701 48.3807 47.7939C49.5603 46.9155 51.1426 46.4618 53.1278 46.4287C54.1418 46.4204 55.1067 46.4867 56.0185 46.6255C56.9303 46.7643 57.7072 47.0129 58.3491 47.3733C58.989 47.7317 59.4163 48.2475 59.6289 48.9229C59.6289 48.927 59.6289 48.9291 59.631 48.9332C59.7802 49.6334 59.5656 50.1948 58.989 50.6174C58.4432 51.0173 57.7563 51.1105 56.9242 50.893C56.867 50.8785 56.8506 50.806 56.8997 50.7728C57.1205 50.6237 57.284 50.4227 57.3944 50.17C57.5232 49.8717 57.5518 49.5506 57.4803 49.2088C57.3208 48.5811 56.8424 48.0777 56.0451 47.7027C55.2478 47.3277 54.3687 47.1434 53.4078 47.1517C51.805 47.2097 50.6356 47.5121 49.8956 48.0632C49.1575 48.6142 48.7732 49.2605 48.7466 50.0043C48.72 50.748 48.9776 51.4316 49.5214 52.0551C50.0652 52.6787 50.8115 53.0971 51.7641 53.3105L54.8082 53.8367C56.1698 54.0812 57.2697 54.4934 58.1059 55.0735C58.942 55.6535 59.5288 56.3247 59.862 57.0871C60.1952 57.8515 60.2975 58.6304 60.1687 59.4259C60.0399 60.2214 59.6944 60.9609 59.1342 61.6425C58.574 62.3241 57.8135 62.8792 56.8567 63.3081C55.9 63.7369 54.7633 63.9503 53.4446 63.9503C51.9665 63.9503 50.5804 63.7638 49.2863 63.393C48.0086 63.0263 46.9373 62.5954 46.0705 62.0962C46.048 62.0837 46.0357 62.061 46.0357 62.0361V59.2042C46.0357 59.1317 46.142 59.1089 46.1768 59.1732C46.5203 59.8112 47.0027 60.4161 47.6242 60.9858C48.3357 61.6384 49.1698 62.1728 50.1286 62.5892C51.0854 63.0056 52.0974 63.2128 53.1666 63.2128C54.1459 63.2128 54.98 63.0823 55.671 62.8212C56.3599 62.5602 56.8792 62.2122 57.2268 61.7813C57.5743 61.3483 57.7297 60.8719 57.6949 60.3477C57.605 59.573 57.2554 58.8748 56.6462 58.2534C56.0369 57.634 55.305 57.2321 54.4505 57.0539L51.4595 56.5277L51.4575 56.5298Z" fill="#012A79"/>
<path d="M67.9455 63.8322V47.1807C67.9455 47.1434 67.9128 47.1123 67.8699 47.1123H61.6774C61.6365 47.1123 61.6018 47.0812 61.6018 47.0439V46.4473C61.6018 46.41 61.6345 46.379 61.6774 46.379H77.5767C77.6176 46.379 77.6523 46.41 77.6523 46.4473V47.0439C77.6523 47.0812 77.6196 47.1123 77.5767 47.1123H71.3985C71.3576 47.1123 71.3229 47.1434 71.3229 47.1807V63.8322C71.3229 63.8695 71.2902 63.9006 71.2472 63.9006H68.0191C67.9782 63.9006 67.9435 63.8695 67.9435 63.8322H67.9455Z" fill="#012A79"/>
<path d="M88.5326 63.9627C88.414 63.9627 88.3057 63.8943 88.2628 63.7928L87.7333 62.5291L86.6824 60.0536C86.6395 59.9521 86.5332 59.8837 86.4126 59.8837H79.1304C79.0119 59.8837 78.9056 59.95 78.8606 60.0515L77.7975 62.5291L77.268 63.7928C77.2251 63.8943 77.1188 63.9627 76.9981 63.9627H76.6056C76.4012 63.9627 76.2622 63.7742 76.3358 63.6002L76.7957 62.5291L83.5341 46.6068C83.577 46.5053 83.6833 46.437 83.8039 46.437H84.3968C84.5154 46.437 84.6237 46.5032 84.6667 46.6068L91.4173 62.5291L91.8773 63.6002C91.9509 63.7742 91.8118 63.9627 91.6074 63.9627H88.5306H88.5326ZM79.6763 59.1504L85.8688 59.14C86.0712 59.14 86.2122 58.9515 86.1366 58.7795L83.023 51.4627C82.9269 51.2368 82.5793 51.2389 82.4833 51.4627L79.4044 58.792C79.3308 58.966 79.4719 59.1524 79.6743 59.1524L79.6763 59.1504Z" fill="#012A79"/>
<path d="M106.444 47.595C107.801 48.3822 108.883 49.4408 109.688 50.7666C110.494 52.0924 110.896 53.5612 110.896 55.1688C110.896 56.7763 110.494 58.2575 109.688 59.5833C108.883 60.9092 107.801 61.9678 106.444 62.755C105.086 63.5422 103.583 63.9358 101.938 63.9358C100.292 63.9358 98.7771 63.5422 97.4258 62.755C96.0724 61.9678 94.9929 60.9092 94.1874 59.5833C93.3819 58.2575 92.9792 56.7846 92.9792 55.1688C92.9792 53.5529 93.3819 52.0924 94.1874 50.7666C94.9929 49.4408 96.0724 48.3822 97.4258 47.595C98.7791 46.8078 100.284 46.4142 101.938 46.4142C103.592 46.4142 105.086 46.8078 106.444 47.595ZM99.1267 48.3718C98.2864 49.099 97.6138 50.0602 97.1109 51.2555C96.608 52.4508 96.3565 53.7559 96.3565 55.1688C96.3565 56.5816 96.608 57.8971 97.1109 59.0944C97.6138 60.2898 98.2864 61.2489 99.1267 61.9719C99.9669 62.6949 100.905 63.0553 101.938 63.0553C102.97 63.0553 103.896 62.6949 104.741 61.9719C105.587 61.2489 106.26 60.2898 106.763 59.0944C107.265 57.8991 107.517 56.5899 107.517 55.1688C107.517 53.7476 107.265 52.4529 106.763 51.2555C106.26 50.0602 105.585 49.099 104.741 48.3718C103.894 47.6447 102.96 47.2822 101.938 47.2822C100.916 47.2822 99.969 47.6447 99.1267 48.3718Z" fill="#012A79"/>
<path d="M118.234 56.5298C116.195 56.1383 114.758 55.4111 113.922 54.3505C113.086 53.2898 112.787 52.1504 113.027 50.9344C113.268 49.7184 113.977 48.6701 115.157 47.7939C116.336 46.9155 117.919 46.4618 119.904 46.4287C120.918 46.4204 121.883 46.4867 122.795 46.6255C123.706 46.7643 124.483 47.0129 125.125 47.3733C125.759 47.7296 126.184 48.2413 126.401 48.9084C126.405 48.9208 126.409 48.9353 126.411 48.9498C126.554 49.6417 126.338 50.199 125.765 50.6195C125.324 50.9448 124.788 51.0649 124.16 50.9841C123.917 50.953 123.813 50.6962 123.96 50.5159C124.044 50.4144 124.113 50.2984 124.171 50.17C124.299 49.8717 124.328 49.5506 124.256 49.2088C124.097 48.5811 123.619 48.0777 122.821 47.7027C122.024 47.3277 121.145 47.1434 120.184 47.1517C118.581 47.2097 117.412 47.5121 116.672 48.0632C115.934 48.6142 115.549 49.2605 115.523 50.0043C115.496 50.748 115.754 51.4316 116.298 52.0551C116.841 52.6787 117.588 53.0971 118.54 53.3105L121.584 53.8367C122.946 54.0812 124.046 54.4934 124.882 55.0735C125.718 55.6535 126.305 56.3247 126.638 57.0871C126.971 57.8515 127.074 58.6304 126.945 59.4259C126.816 60.2214 126.471 60.9609 125.91 61.6425C125.35 62.3241 124.59 62.8792 123.633 63.3081C122.676 63.7369 121.539 63.9503 120.221 63.9503C118.743 63.9503 117.357 63.7638 116.062 63.393C114.84 63.0429 113.805 62.6307 112.959 62.1604C112.867 62.1086 112.812 62.0154 112.812 61.9159V60.008C112.812 59.7242 113.211 59.6185 113.382 59.8568C113.664 60.2483 114.004 60.6233 114.4 60.9858C115.112 61.6384 115.946 62.1728 116.905 62.5892C117.862 63.0056 118.874 63.2128 119.943 63.2128C120.922 63.2128 121.756 63.0823 122.447 62.8212C123.136 62.5602 123.655 62.2122 124.003 61.7813C124.35 61.3483 124.506 60.8719 124.471 60.3477C124.381 59.573 124.032 58.8748 123.422 58.2534C122.813 57.634 122.081 57.2321 121.227 57.0539L118.236 56.5277L118.234 56.5298Z" fill="#012A79"/>
<path d="M87.7537 42.4471C87.7639 42.3704 87.6699 42.3393 87.6372 42.4077C87.4797 42.7454 87.2324 42.9567 86.893 43.0416C86.3942 43.1555 85.5928 43.0457 84.4847 42.7101L83.0741 42.2938C82.428 42.1301 81.9067 42.184 81.5101 42.4533C81.1217 42.7309 80.8416 43.11 80.6658 43.5926C80.5758 43.8433 80.5083 44.0836 80.4654 44.3136C80.4511 44.3902 80.5451 44.4296 80.5779 44.3633C80.7312 44.0608 80.9683 43.8702 81.2873 43.7894C81.7861 43.6755 82.5875 43.7853 83.6956 44.1209L85.3699 44.6098C86.0057 44.7817 86.5046 44.7196 86.8644 44.4254C87.214 44.1395 87.4552 43.7522 87.584 43.2612C87.6637 42.9753 87.7189 42.7039 87.7537 42.4471Z" fill="#012A79"/>
<path d="M41.9837 43.4621C43.1569 43.4621 44.1079 42.4985 44.1079 41.3097C44.1079 40.121 43.1569 39.1573 41.9837 39.1573C40.8106 39.1573 39.8596 40.121 39.8596 41.3097C39.8596 42.4985 40.8106 43.4621 41.9837 43.4621Z" fill="#0059BB"/>
<path d="M59.2548 37.5353C57.9648 37.5353 56.6891 37.4732 55.4359 37.3385C55.1251 37.295 48.258 36.2924 45.8885 31.9524C44.7989 29.9574 44.8418 27.6061 46.0173 24.9669C46.0214 24.9586 46.0255 24.9504 46.0296 24.9421C46.1175 24.7681 48.2314 20.6331 53.2933 18.6154C54.6283 18.083 55.8938 18.112 57.0571 18.7003C59.8088 20.0925 60.9476 24.1569 60.9946 24.3309C61.0845 24.6624 60.8944 25.0042 60.5673 25.0954C60.2402 25.1865 59.9029 24.9939 59.8129 24.6624C59.8027 24.6251 58.7703 20.9542 56.5071 19.8107C55.6567 19.3819 54.751 19.3674 53.7411 19.7714C49.227 21.5695 47.244 25.2694 47.1274 25.4931C46.1277 27.7491 46.0705 29.7212 46.9618 31.3516C49.0369 35.153 55.5176 36.0976 55.5831 36.1059C70.822 37.7404 89.9208 28.3043 90.1109 28.209C90.4155 28.0578 90.7815 28.1841 90.9327 28.4907C91.084 28.7973 90.9573 29.1702 90.6547 29.3235C90.4768 29.4126 74.0399 37.5353 59.2548 37.5353Z" fill="#012A79"/>
<path d="M59.2548 37.7425C57.9259 37.7425 56.6339 37.6762 55.4134 37.5457C55.1108 37.5042 48.1312 36.4912 45.7086 32.0539C44.5863 29.9968 44.6271 27.5854 45.8292 24.882L45.8456 24.8468C45.9335 24.6686 48.0822 20.4674 53.2177 18.4207C54.6079 17.8675 55.9306 17.8986 57.1491 18.5139C59.9806 19.9474 61.1438 24.0989 61.1929 24.275C61.2522 24.4884 61.2236 24.7121 61.1173 24.9048C61.0109 25.0974 60.8351 25.2362 60.6246 25.2942C60.1891 25.4165 59.7393 25.1575 59.6187 24.7163C59.6085 24.681 58.5945 21.093 56.4192 19.9951C55.624 19.5932 54.7735 19.5828 53.8208 19.9619C49.3538 21.7414 47.3953 25.431 47.3135 25.5863C46.3465 27.7677 46.2872 29.6777 47.1458 31.248C49.1718 34.9582 55.5524 35.8884 55.6158 35.8988C70.7995 37.527 89.8349 28.1178 90.025 28.0225C90.4298 27.8195 90.9205 27.9894 91.1208 28.3996C91.3212 28.8097 91.1535 29.3069 90.7487 29.5099C90.5832 29.5928 74.1114 37.7425 59.2589 37.7425H59.2548ZM55.1415 18.4435C54.567 18.4435 53.9762 18.5636 53.3669 18.806C48.3766 20.7947 46.2974 24.8613 46.2095 25.0332C45.0544 27.6269 45.0094 29.916 46.0664 31.8508C48.3909 36.108 55.1742 37.092 55.4625 37.1334C56.6625 37.2619 57.9403 37.3282 59.2548 37.3282C74.0113 37.3282 90.3992 29.2199 90.5627 29.137C90.7651 29.0355 90.8489 28.787 90.7487 28.5819C90.6486 28.3768 90.4032 28.2918 90.2008 28.3933C90.0087 28.4886 70.867 37.9517 55.5606 36.311C55.489 36.3006 48.9081 35.3456 46.7819 31.451C45.8579 29.7606 45.9131 27.7263 46.9414 25.4082C47.0314 25.2342 49.0594 21.4141 53.6675 19.5787C54.7346 19.154 55.6935 19.1685 56.5991 19.6263C58.9441 20.8092 59.999 24.5692 60.0112 24.6065C60.0705 24.8261 60.2974 24.9566 60.5142 24.8965C60.6184 24.8675 60.7063 24.797 60.7615 24.7018C60.8167 24.6065 60.829 24.4946 60.8004 24.3869C60.7533 24.2191 59.6392 20.2375 56.9692 18.8868C56.3865 18.5926 55.7773 18.4455 55.1456 18.4455L55.1415 18.4435Z" fill="#012A79"/>
<path d="M69.5279 25.0374C69.2315 25.0374 68.9718 24.8199 68.9228 24.5133C68.9166 24.4822 68.3094 21.1158 63.916 18.4166C59.8191 15.8996 57.7951 18.8288 57.5764 19.1706C57.3924 19.4586 57.0142 19.5414 56.7279 19.3571C56.4438 19.1706 56.3599 18.7874 56.5439 18.4973C56.6564 18.3192 59.3754 14.1718 64.5498 17.3517C69.4604 20.3701 70.1065 24.157 70.131 24.3165C70.1842 24.6562 69.9552 24.9732 69.6219 25.027C69.5892 25.0332 69.5565 25.0353 69.5259 25.0353L69.5279 25.0374Z" fill="#012A79"/>
<path d="M69.5279 25.2445C69.1231 25.2445 68.7837 24.9504 68.7204 24.5464C68.7142 24.5174 68.0886 21.2236 63.8097 18.5926C59.8783 16.1771 57.9546 18.9572 57.7481 19.2825C57.5048 19.6657 56.9978 19.7776 56.6175 19.5311C56.2393 19.2845 56.1289 18.7708 56.3722 18.3855C56.4908 18.2011 59.3141 13.8922 64.6561 17.1756C69.6485 20.2416 70.3089 24.1217 70.3334 24.2854C70.4049 24.737 70.1003 25.1617 69.6547 25.2342C69.6117 25.2404 69.5688 25.2445 69.5259 25.2445H69.5279ZM60.8167 17.1922C61.706 17.1922 62.7712 17.4698 64.0223 18.2384C68.4934 20.9853 69.119 24.4428 69.1252 24.478C69.1599 24.7038 69.3664 24.8613 69.5933 24.824C69.8162 24.7888 69.9674 24.5754 69.9327 24.3496C69.9082 24.1942 69.2785 20.4964 64.4476 17.5299C59.4408 14.4536 56.8281 18.4393 56.7198 18.6092C56.5971 18.8019 56.6523 19.0587 56.8424 19.181C57.0325 19.3053 57.2861 19.2493 57.4067 19.0567C57.5682 18.8019 58.6783 17.1901 60.8188 17.1901L60.8167 17.1922Z" fill="#012A79"/>
<path d="M72.6027 19.6388C72.4309 19.6388 72.2613 19.5663 72.1406 19.4254C68.6161 15.3361 65.2285 17.9173 65.0854 18.0292C64.8176 18.2384 64.4333 18.1907 64.2247 17.9194C64.0183 17.648 64.0653 17.2585 64.3331 17.0472C65.8562 15.8519 69.6403 14.64 73.0627 18.6092C73.2855 18.8682 73.2589 19.2597 73.0034 19.4855C72.8868 19.5891 72.7437 19.6388 72.6006 19.6388H72.6027Z" fill="#012A79"/>
<path d="M72.6027 19.8459C72.3655 19.8459 72.1427 19.7424 71.9873 19.5621C68.5854 15.6157 65.3471 18.0851 65.2122 18.1928C64.8565 18.4725 64.3413 18.4062 64.0653 18.0457C63.7893 17.6853 63.8547 17.1632 64.2104 16.8836C65.7867 15.6468 69.6976 14.3873 73.2201 18.4725C73.3632 18.6382 73.4347 18.8516 73.4204 19.0732C73.4061 19.2949 73.308 19.4958 73.1424 19.6409C72.9932 19.7734 72.803 19.8459 72.6047 19.8459H72.6027ZM67.8556 16.9126C69.1313 16.9126 70.7014 17.4429 72.294 19.2887C72.4371 19.4544 72.7069 19.4731 72.8705 19.328C72.9523 19.2555 73.0013 19.154 73.0095 19.0442C73.0177 18.9344 72.9809 18.8267 72.9093 18.7439C69.5872 14.8907 65.9298 16.0549 64.4578 17.2088C64.2799 17.3497 64.2472 17.6086 64.3842 17.7909C64.5212 17.9732 64.7788 18.0043 64.9587 17.8655C65.0425 17.7992 66.2037 16.9126 67.8535 16.9126H67.8556Z" fill="#012A79"/>
<path d="M82.4546 8.98246C82.4342 8.98246 82.4137 8.98246 82.3933 8.97624C79.8603 8.45627 78.0121 7.32725 76.9061 5.62232C75.2951 3.14055 75.8451 0.364602 75.8696 0.246521C75.9003 0.0973654 76.0332 -0.00414297 76.1824 2.29338e-07C78.2534 0.0849358 79.8787 0.805853 81.0133 2.14618C83.1742 4.69632 82.7776 8.54328 82.7613 8.70486C82.7511 8.79187 82.7061 8.87059 82.6366 8.92238C82.5834 8.96174 82.52 8.98246 82.4567 8.98246H82.4546ZM76.4298 0.638053C76.3419 1.36104 76.2213 3.44507 77.4234 5.28879C78.3883 6.76999 79.985 7.78093 82.1745 8.29261C82.2154 7.31482 82.1786 4.47258 80.5472 2.55014C79.5782 1.40662 78.1941 0.764421 76.4318 0.638053H76.4298Z" fill="#73AA3D"/>
<path d="M88.9742 1.46879C88.9742 1.46879 83.1272 1.15183 83.7896 7.51372C83.7896 7.51372 89.5589 7.83067 88.9742 1.46879Z" fill="#73AA3D"/>
<path d="M77.3273 22.9782C80.7337 22.9782 83.4952 20.18 83.4952 16.7282C83.4952 13.2764 80.7337 10.4781 77.3273 10.4781C73.9208 10.4781 71.1593 13.2764 71.1593 16.7282C71.1593 20.18 73.9208 22.9782 77.3273 22.9782Z" fill="#7E48A2"/>
<path d="M86.7642 32.5013C89.9302 32.5013 92.4967 29.9006 92.4967 26.6926C92.4967 23.4845 89.9302 20.8838 86.7642 20.8838C83.5982 20.8838 81.0317 23.4845 81.0317 26.6926C81.0317 29.9006 83.5982 32.5013 86.7642 32.5013Z" fill="#7E48A2"/>
<path d="M88.3854 19.6802C90.6109 19.6802 92.4149 17.8521 92.4149 15.5971C92.4149 13.3421 90.6109 11.514 88.3854 11.514C86.16 11.514 84.3559 13.3421 84.3559 15.5971C84.3559 17.8521 86.16 19.6802 88.3854 19.6802Z" fill="#7E48A2"/>
<path d="M76.6117 30.5665C78.2309 30.5665 79.5434 29.2365 79.5434 27.5958C79.5434 25.9551 78.2309 24.6251 76.6117 24.6251C74.9926 24.6251 73.6801 25.9551 73.6801 27.5958C73.6801 29.2365 74.9926 30.5665 76.6117 30.5665Z" fill="#7E48A2"/>
</g>
<defs>
<clipPath id="clip0_2_80">
<rect width="127" height="64" fill="white"/>
</clipPath>
</defs>
</svg>
