<svg width="29" height="22" viewBox="0 0 29 22" fill="none" xmlns="http://www.w3.org/2000/svg">
<g clip-path="url(#clip0_2_147)">
<path d="M1.22222 0C0.547207 0 0 0.547208 0 1.22222C0 1.89724 0.547207 2.44444 1.22222 2.44444H27.7778C28.4528 2.44444 29 1.89724 29 1.22222C29 0.547208 28.4528 0 27.7778 0H1.22222ZM1.22222 9.77778C0.547206 9.77778 0 10.325 0 11C0 11.675 0.547207 12.2222 1.22222 12.2222H27.7778C28.4528 12.2222 29 11.675 29 11C29 10.325 28.4528 9.77778 27.7778 9.77778H1.22222ZM1.22222 19.5556C0.547206 19.5556 0 20.1028 0 20.7778C0 21.4528 0.547207 22 1.22222 22H27.7778C28.4528 22 29 21.4528 29 20.7778C29 20.1028 28.4528 19.5556 27.7778 19.5556H1.22222Z" fill="#012A79"/>
</g>
<defs>
<clipPath id="clip0_2_147">
<rect width="29" height="22" fill="white"/>
</clipPath>
</defs>
</svg>
