<svg width="24" height="26" viewBox="0 0 24 26" fill="none" xmlns="http://www.w3.org/2000/svg">
<path d="M14.6683 0.567749C9.52491 0.567749 5.33657 5.04675 5.33657 10.5471C5.33657 12.6261 5.92985 14.5547 6.95074 16.1531C7.21379 16.5649 7.19164 17.1081 6.85787 17.465L0.625781 24.1296C0.27359 24.5062 0.27359 25.0914 0.625782 25.468C1.01302 25.8821 1.66985 25.8821 2.05709 25.468L8.11669 18.9879C8.48518 18.5938 9.09685 18.5683 9.53715 18.8801C11.0097 19.9228 12.772 20.5264 14.6683 20.5264C19.8117 20.5264 24 16.0474 24 10.5471C24 5.04675 19.8117 0.567749 14.6683 0.567749ZM14.6683 2.56361C18.8019 2.56361 22.1337 6.12654 22.1337 10.5471C22.1337 14.9676 18.8019 18.5305 14.6683 18.5305C10.5346 18.5305 7.20292 14.9676 7.20292 10.5471C7.20292 6.12654 10.5346 2.56361 14.6683 2.56361Z" fill="#0059BB"/>
</svg>
