<svg width="28" height="22" viewBox="0 0 28 22" fill="none" xmlns="http://www.w3.org/2000/svg">
<g clip-path="url(#clip0_21_281)">
<path d="M27.8828 2.63646C26.997 3.02199 26.0135 3.25206 25.0495 3.40751C25.5055 3.3329 26.1763 2.5494 26.4433 2.22606C26.8537 1.74104 27.1924 1.18762 27.3812 0.590669C27.4073 0.547142 27.4268 0.48496 27.3812 0.447651C27.3226 0.422778 27.277 0.435214 27.2314 0.460087C26.1633 1.00729 25.0561 1.40525 23.8772 1.68507C23.7795 1.70995 23.7078 1.68507 23.6427 1.62911C23.545 1.5234 23.4538 1.42391 23.3496 1.34307C22.8546 0.938888 22.3205 0.627978 21.7213 0.391687C20.9332 0.0869948 20.0735 -0.0435874 19.2268 0.00615818C18.3996 0.0559038 17.592 0.279759 16.8625 0.646633C16.1265 1.01351 15.4752 1.5234 14.9542 2.13278C14.4136 2.76704 14.0163 3.51944 13.8144 4.31537C13.619 5.08021 13.632 5.83883 13.7558 6.61611C13.7753 6.74669 13.7558 6.75913 13.6385 6.74669C9.0207 6.09378 5.204 4.52057 2.09723 1.14409C1.96045 0.994852 1.88881 0.994852 1.77808 1.15653C0.42335 3.0966 1.08118 6.21814 2.77459 7.75404C3.00255 7.95924 3.23051 8.16444 3.48453 8.35099C3.39334 8.36964 2.26657 8.25149 1.25703 7.75404C1.12026 7.6732 1.05512 7.71673 1.0421 7.86597C1.02907 8.07738 1.0421 8.27015 1.08118 8.494C1.3417 10.4652 2.76808 12.2871 4.72854 12.996C4.96301 13.0893 5.21702 13.1701 5.47104 13.2136C5.02814 13.3069 4.56571 13.3753 3.28913 13.2758C3.13282 13.2447 3.06769 13.3255 3.13282 13.4686C4.09025 15.9683 6.16794 16.7145 7.71807 17.1373C7.92649 17.1746 8.13491 17.1746 8.34333 17.2181C8.33031 17.2368 8.31728 17.2368 8.30425 17.2555C7.78971 18.0079 6.00511 18.5613 5.17143 18.8411C3.66038 19.3448 2.01256 19.5748 0.416837 19.4256C0.162824 19.3883 0.104206 19.3945 0.0390744 19.4256C-0.0325701 19.4691 0.0325613 19.5251 0.110719 19.5873C0.436376 19.7925 0.762033 19.9728 1.10072 20.1469C2.11677 20.663 3.1719 21.0672 4.27913 21.3595C9.99767 22.8643 16.4327 21.7574 20.7248 17.6907C24.0921 14.4946 25.2775 10.0859 25.2775 5.67094C25.2775 5.49683 25.4924 5.40356 25.6162 5.31028C26.4955 4.68225 27.1989 3.92984 27.8567 3.09039C28.0065 2.90384 28.0065 2.73595 28.0065 2.66755V2.64268C28.0065 2.57428 28.0065 2.59293 27.8893 2.64268L27.8828 2.63646Z" fill="white"/>
</g>
<defs>
<clipPath id="clip0_21_281">
<rect width="28" height="22" fill="white"/>
</clipPath>
</defs>
</svg>
