<svg width="21" height="17" viewBox="0 0 21 17" fill="none" xmlns="http://www.w3.org/2000/svg">
<g clip-path="url(#clip0_2_141)">
<path d="M20.9121 2.0373C20.2478 2.3352 19.5101 2.51299 18.7872 2.63311C19.1291 2.57545 19.6323 1.97003 19.8325 1.72017C20.1403 1.34538 20.3943 0.917737 20.536 0.456459C20.5555 0.422825 20.5702 0.374775 20.536 0.345945C20.492 0.326725 20.4578 0.336335 20.4236 0.355555C19.6225 0.778393 18.7921 1.08591 17.9079 1.30213C17.8346 1.32135 17.7809 1.30213 17.7321 1.25889C17.6588 1.17721 17.5904 1.10033 17.5122 1.03786C17.141 0.725538 16.7404 0.485289 16.291 0.3027C15.7 0.0672566 15.0552 -0.0336479 14.4201 0.00479189C13.7997 0.0432317 13.194 0.216211 12.6469 0.499704C12.0949 0.783198 11.6064 1.17721 11.2157 1.64809C10.8102 2.1382 10.5122 2.7196 10.3608 3.33464C10.2143 3.92565 10.224 4.51186 10.3168 5.11248C10.3315 5.21338 10.3168 5.22299 10.2289 5.21338C6.76555 4.70886 3.90303 3.4932 1.57295 0.884102C1.47037 0.768783 1.41664 0.768783 1.33359 0.893712C0.317543 2.39286 0.810914 4.80496 2.08098 5.99179C2.25195 6.15035 2.42292 6.30892 2.61343 6.45307C2.54504 6.46748 1.69996 6.37619 0.942805 5.99179C0.840222 5.92933 0.791374 5.96296 0.781604 6.07828C0.771835 6.24165 0.781604 6.3906 0.810913 6.56358C1.00631 8.08676 2.07609 9.49462 3.54643 10.0424C3.72229 10.1145 3.9128 10.1769 4.10331 10.2106C3.77114 10.2826 3.42431 10.3355 2.46688 10.2586C2.34964 10.2346 2.30079 10.297 2.34964 10.4076C3.06772 12.3392 4.62599 12.9158 5.78858 13.2425C5.9449 13.2713 6.10121 13.2713 6.25753 13.305C6.24776 13.3194 6.23799 13.3194 6.22822 13.3338C5.84232 13.9152 4.50386 14.3428 3.8786 14.5591C2.74532 14.9483 1.50945 15.126 0.312658 15.0107C0.122149 14.9819 0.0781849 14.9867 0.0293363 15.0107C-0.0243971 15.0444 0.0244515 15.0876 0.0830697 15.1357C0.327313 15.2942 0.571555 15.4336 0.825568 15.5681C1.58761 15.9669 2.37895 16.2792 3.20938 16.5051C7.49828 17.6679 12.3245 16.8126 15.5436 13.6701C18.0691 11.2004 18.9582 7.79365 18.9582 4.38212C18.9582 4.24758 19.1194 4.17551 19.2122 4.10344C19.8716 3.61813 20.3992 3.03673 20.8926 2.38806C21.0049 2.24391 21.0049 2.11418 21.0049 2.06132V2.0421C21.0049 1.98925 21.0049 2.00366 20.917 2.0421L20.9121 2.0373Z" fill="#012A79"/>
</g>
<defs>
<clipPath id="clip0_2_141">
<rect width="21" height="17" fill="white"/>
</clipPath>
</defs>
</svg>
